<svg xmlns="http://www.w3.org/2000/svg" viewBox="0 0 64 64" role="img" aria-label="AWS Prep">
  <rect width="64" height="64" rx="16" fill="#232f3e"/>
  <path d="M16 18h32a6 6 0 0 1 6 6v16a6 6 0 0 1-6 6H16a6 6 0 0 1-6-6V24a6 6 0 0 1 6-6Z" fill="#ff9900"/>
  <path d="M20 40c4.8 3.6 18.6 4 24.8-.2" fill="none" stroke="#232f3e" stroke-linecap="round" stroke-width="3.2"/>
  <path d="m43.2 41 3.8-2.1-1 4.2" fill="none" stroke="#232f3e" stroke-linecap="round" stroke-linejoin="round" stroke-width="2.8"/>
  <path d="M18 24h8.6l3.2 10.2L33 24h4.4l3.4 10.2L44 24h2.8l-5.4 16h-4.2L34.8 30 31.6 40h-4.1L18 24Z" fill="#232f3e"/>
</svg>
